<svg xmlns="http://www.w3.org/2000/svg" viewBox="0 0 800 400">
  <rect width="800" height="400" fill="#0f172a" rx="12"/>
  <text x="400" y="32" text-anchor="middle" fill="#f8fafc" font-family="system-ui" font-size="15" font-weight="bold">RAKSHA SECURITY DASHBOARD</text>
  <line x1="20" y1="45" x2="780" y2="45" stroke="#334155" stroke-width="1"/>
  <rect x="20" y="58" width="180" height="65" fill="#1e293b" rx="8" stroke="#334155"/>
  <text x="110" y="80" text-anchor="middle" fill="#94a3b8" font-family="system-ui" font-size="10">AGENTS ONLINE</text>
  <text x="110" y="108" text-anchor="middle" fill="#10b981" font-family="system-ui" font-size="22" font-weight="bold">47<animate attributeName="opacity" values="1;0.7;1" dur="2s" repeatCount="indefinite"/></text>
  <rect x="210" y="58" width="180" height="65" fill="#1e293b" rx="8" stroke="#334155"/>
  <text x="300" y="80" text-anchor="middle" fill="#94a3b8" font-family="system-ui" font-size="10">THREATS BLOCKED</text>
  <text x="300" y="108" text-anchor="middle" fill="#ef4444" font-family="system-ui" font-size="22" font-weight="bold">1,284</text>
  <rect x="400" y="58" width="180" height="65" fill="#1e293b" rx="8" stroke="#334155"/>
  <text x="490" y="80" text-anchor="middle" fill="#94a3b8" font-family="system-ui" font-size="10">COMPLIANCE</text>
  <text x="490" y="108" text-anchor="middle" fill="#3b82f6" font-family="system-ui" font-size="22" font-weight="bold">94.2%</text>
  <rect x="590" y="58" width="180" height="65" fill="#1e293b" rx="8" stroke="#334155"/>
  <text x="680" y="80" text-anchor="middle" fill="#94a3b8" font-family="system-ui" font-size="10">VULNERABILITIES</text>
  <text x="680" y="108" text-anchor="middle" fill="#f59e0b" font-family="system-ui" font-size="22" font-weight="bold">23</text>
  <rect x="20" y="138" width="480" height="245" fill="#1e293b" rx="8" stroke="#334155"/>
  <text x="40" y="162" fill="#e2e8f0" font-family="system-ui" font-size="11" font-weight="bold">Network Traffic Anomaly Detection</text>
  <polyline points="40,350 80,320 120,330 160,280 200,290 240,250 280,270 320,220 360,240 400,200 440,230 480,210" fill="none" stroke="#3b82f6" stroke-width="2" stroke-linecap="round"><animate attributeName="points" values="40,350 80,320 120,330 160,280 200,290 240,250 280,270 320,220 360,240 400,200 440,230 480,210;40,340 80,310 120,340 160,290 200,280 240,260 280,250 320,230 360,220 400,210 440,220 480,200;40,350 80,320 120,330 160,280 200,290 240,250 280,270 320,220 360,240 400,200 440,230 480,210" dur="4s" repeatCount="indefinite"/></polyline>
  <circle cx="320" cy="220" r="6" fill="#ef4444" opacity="0"><animate attributeName="opacity" values="0;1;0" dur="2s" repeatCount="indefinite"/></circle>
  <text x="332" y="215" fill="#ef4444" font-family="system-ui" font-size="9" opacity="0">ANOMALY<animate attributeName="opacity" values="0;1;0" dur="2s" repeatCount="indefinite"/></text>
  <line x1="40" y1="270" x2="480" y2="270" stroke="#334155" stroke-width="1" stroke-dasharray="4,4"/>
  <rect x="515" y="138" width="265" height="245" fill="#1e293b" rx="8" stroke="#334155"/>
  <text x="535" y="162" fill="#e2e8f0" font-family="system-ui" font-size="11" font-weight="bold">Recent Alerts</text>
  <rect x="525" y="175" width="245" height="34" fill="#0f172a" rx="4"/>
  <circle cx="540" cy="192" r="4" fill="#ef4444"><animate attributeName="r" values="4;8;4" dur="2s" repeatCount="indefinite"/></circle>
  <text x="552" y="188" fill="#f8fafc" font-family="system-ui" font-size="9">Brute force detected</text>
  <text x="552" y="200" fill="#64748b" font-family="system-ui" font-size="8">web-server-01 · 2m ago</text>
  <rect x="525" y="215" width="245" height="34" fill="#0f172a" rx="4"/>
  <circle cx="540" cy="232" r="4" fill="#f59e0b"/>
  <text x="552" y="228" fill="#f8fafc" font-family="system-ui" font-size="9">CVE-2024-3094 found</text>
  <text x="552" y="240" fill="#64748b" font-family="system-ui" font-size="8">db-primary · 5m ago</text>
  <rect x="525" y="255" width="245" height="34" fill="#0f172a" rx="4"/>
  <circle cx="540" cy="272" r="4" fill="#f59e0b"/>
  <text x="552" y="268" fill="#f8fafc" font-family="system-ui" font-size="9">File modified: /etc/passwd</text>
  <text x="552" y="280" fill="#64748b" font-family="system-ui" font-size="8">app-server-03 · 8m ago</text>
  <rect x="525" y="295" width="245" height="34" fill="#0f172a" rx="4"/>
  <circle cx="540" cy="312" r="4" fill="#10b981"/>
  <text x="552" y="308" fill="#f8fafc" font-family="system-ui" font-size="9">Honeypot triggered (SSH)</text>
  <text x="552" y="320" fill="#64748b" font-family="system-ui" font-size="8">honeypot-01 · 12m ago</text>
  <rect x="525" y="335" width="245" height="34" fill="#0f172a" rx="4"/>
  <circle cx="540" cy="352" r="4" fill="#3b82f6"/>
  <text x="552" y="348" fill="#f8fafc" font-family="system-ui" font-size="9">Dark web: credential leak</text>
  <text x="552" y="360" fill="#64748b" font-family="system-ui" font-size="8">monitoring · 15m ago</text>
</svg>
