<svg xmlns="http://www.w3.org/2000/svg" viewBox="0 0 800 320">
  <rect width="800" height="320" fill="#0f172a" rx="12"/>
  <text x="400" y="28" text-anchor="middle" fill="#f8fafc" font-family="system-ui" font-size="14" font-weight="bold">ML-POWERED THREAT DETECTION</text>
  <rect x="30" y="45" width="180" height="120" fill="#1e293b" rx="8" stroke="#334155"/>
  <text x="120" y="66" text-anchor="middle" fill="#94a3b8" font-family="system-ui" font-size="10" font-weight="bold">Input Data</text>
  <text x="48" y="86" fill="#64748b" font-family="system-ui" font-size="9">Network flows</text>
  <text x="48" y="102" fill="#64748b" font-family="system-ui" font-size="9">System metrics</text>
  <text x="48" y="118" fill="#64748b" font-family="system-ui" font-size="9">Auth logs</text>
  <text x="48" y="134" fill="#64748b" font-family="system-ui" font-size="9">File changes</text>
  <text x="48" y="150" fill="#64748b" font-family="system-ui" font-size="9">DNS queries</text>
  <line x1="210" y1="105" x2="268" y2="105" stroke="#3b82f6" stroke-width="1.5" stroke-dasharray="4,3"><animate attributeName="stroke-dashoffset" values="0;-14" dur="1s" repeatCount="indefinite"/></line>
  <polygon points="266,100 276,105 266,110" fill="#3b82f6"/>
  <rect x="278" y="45" width="244" height="120" fill="#1e293b" rx="8" stroke="#8b5cf6" stroke-width="1.5"/>
  <text x="400" y="66" text-anchor="middle" fill="#c4b5fd" font-family="system-ui" font-size="10" font-weight="bold">ML Engine (Python FastAPI)</text>
  <rect x="290" y="76" width="105" height="24" fill="#312e81" rx="4"/>
  <text x="342" y="92" text-anchor="middle" fill="#a5b4fc" font-family="system-ui" font-size="9">Isolation Forest</text>
  <rect x="405" y="76" width="105" height="24" fill="#312e81" rx="4"/>
  <text x="457" y="92" text-anchor="middle" fill="#a5b4fc" font-family="system-ui" font-size="9">LSTM Network</text>
  <rect x="290" y="108" width="105" height="24" fill="#312e81" rx="4"/>
  <text x="342" y="124" text-anchor="middle" fill="#a5b4fc" font-family="system-ui" font-size="9">CNN Classifier</text>
  <rect x="405" y="108" width="105" height="24" fill="#312e81" rx="4"/>
  <text x="457" y="124" text-anchor="middle" fill="#a5b4fc" font-family="system-ui" font-size="9">Autoencoder</text>
  <text x="400" y="155" text-anchor="middle" fill="#64748b" font-family="system-ui" font-size="8">Auto-retrain - Real-time inference</text>
  <line x1="522" y1="105" x2="568" y2="105" stroke="#ef4444" stroke-width="1.5" stroke-dasharray="4,3"><animate attributeName="stroke-dashoffset" values="0;-14" dur="1s" repeatCount="indefinite"/></line>
  <polygon points="566,100 576,105 566,110" fill="#ef4444"/>
  <rect x="578" y="45" width="192" height="120" fill="#1e293b" rx="8" stroke="#ef4444" stroke-width="1.5"/>
  <text x="674" y="66" text-anchor="middle" fill="#fca5a5" font-family="system-ui" font-size="10" font-weight="bold">Detection Output</text>
  <text x="595" y="88" fill="#f87171" font-family="system-ui" font-size="9">Score: 0.94</text>
  <text x="595" y="106" fill="#f87171" font-family="system-ui" font-size="9">Type: Exfiltration</text>
  <text x="595" y="124" fill="#f87171" font-family="system-ui" font-size="9">Confidence: 97.2%</text>
  <text x="595" y="142" fill="#10b981" font-family="system-ui" font-size="9">Auto-blocked: YES</text>
  <text x="595" y="158" fill="#3b82f6" font-family="system-ui" font-size="9">Alert: Telegram</text>
  <rect x="30" y="185" width="740" height="120" fill="#1e293b" rx="8" stroke="#334155"/>
  <text x="400" y="207" text-anchor="middle" fill="#f8fafc" font-family="system-ui" font-size="10" font-weight="bold">Auto-Syncing Threat Intelligence Feeds</text>
  <rect x="45" y="218" width="80" height="26" fill="#312e81" rx="4"/>
  <text x="85" y="235" text-anchor="middle" fill="#a5b4fc" font-family="system-ui" font-size="8">NVD/CVE</text>
  <rect x="135" y="218" width="80" height="26" fill="#312e81" rx="4"/>
  <text x="175" y="235" text-anchor="middle" fill="#a5b4fc" font-family="system-ui" font-size="8">MITRE</text>
  <rect x="225" y="218" width="80" height="26" fill="#312e81" rx="4"/>
  <text x="265" y="235" text-anchor="middle" fill="#a5b4fc" font-family="system-ui" font-size="8">CISA KEV</text>
  <rect x="315" y="218" width="80" height="26" fill="#312e81" rx="4"/>
  <text x="355" y="235" text-anchor="middle" fill="#a5b4fc" font-family="system-ui" font-size="8">Abuse.ch</text>
  <rect x="405" y="218" width="80" height="26" fill="#312e81" rx="4"/>
  <text x="445" y="235" text-anchor="middle" fill="#a5b4fc" font-family="system-ui" font-size="8">OTX</text>
  <rect x="495" y="218" width="80" height="26" fill="#312e81" rx="4"/>
  <text x="535" y="235" text-anchor="middle" fill="#a5b4fc" font-family="system-ui" font-size="8">PhishTank</text>
  <rect x="585" y="218" width="80" height="26" fill="#312e81" rx="4"/>
  <text x="625" y="235" text-anchor="middle" fill="#a5b4fc" font-family="system-ui" font-size="8">ET Rules</text>
  <rect x="675" y="218" width="80" height="26" fill="#312e81" rx="4"/>
  <text x="715" y="235" text-anchor="middle" fill="#a5b4fc" font-family="system-ui" font-size="8">URLhaus</text>
  <text x="400" y="275" text-anchor="middle" fill="#f59e0b" font-family="monospace" font-size="12">IOCs Loaded: 2,847,391<animate attributeName="opacity" values="1;0.5;1" dur="1.5s" repeatCount="indefinite"/></text>
  <text x="400" y="295" text-anchor="middle" fill="#64748b" font-family="system-ui" font-size="8">Zero manual intervention - Updates every 30 min to 24h</text>
</svg>
